<svg id="Layer_1" data-name="Layer 1" xmlns="http://www.w3.org/2000/svg" xmlns:xlink="http://www.w3.org/1999/xlink" viewBox="0 0 1080 1080"><defs><style>.cls-1{fill:url(#linear-gradient);}.cls-2{fill:url(#linear-gradient-2);}.cls-3{fill:url(#linear-gradient-3);}.cls-4{fill:url(#linear-gradient-4);}.cls-5{fill:url(#linear-gradient-5);}.cls-6{fill:url(#linear-gradient-6);}</style><linearGradient id="linear-gradient" x1="546.5" y1="950.34" x2="547.57" y2="950.34" gradientUnits="userSpaceOnUse"><stop offset="0" stop-color="#ff4600"/><stop offset="1" stop-color="#ffbc00"/></linearGradient><linearGradient id="linear-gradient-2" x1="546.37" y1="950.11" x2="547.57" y2="950.11" xlink:href="#linear-gradient"/><linearGradient id="linear-gradient-3" x1="73.5" y1="522.99" x2="1005.37" y2="522.55" xlink:href="#linear-gradient"/><linearGradient id="linear-gradient-4" x1="88.31" y1="555.94" x2="994.19" y2="555.51" xlink:href="#linear-gradient"/><linearGradient id="linear-gradient-5" x1="82.31" y1="600.45" x2="998.38" y2="600.02" xlink:href="#linear-gradient"/><linearGradient id="linear-gradient-6" x1="182.25" y1="256.63" x2="182.75" y2="256.63" xlink:href="#linear-gradient"/></defs><title>Artboard 1toán</title><polygon class="cls-1" points="547.57 950.55 546.5 950.55 547 950.13 547.57 950.55"/><polygon class="cls-2" points="547.57 950.55 546.37 950.55 546.37 949.66 547 950.13 547.57 950.55"/><path class="cls-3" d="M346,131.44,182.25,256.16v.28h.5l-.5.38v-.38h-.37L73.55,338.94V632.72l108.7,80L347.1,834.17l108.69,80.06V131.44Zm1.09,549.82L182.25,559.86V397.16L347.1,271.35Z"/><path class="cls-4" d="M850.72,211l-108-79.53H544.56V979.6l.54.4,99.28-79.81,8.87-7.14V256.44H912.47ZM546.37,950.55v-.89l.64.47.56.42Z"/><polygon class="cls-5" points="997.45 379.54 793.65 379.54 742.02 379.54 742.02 820.74 850.72 733.36 850.72 504.54 997.45 504.54 1012.85 504.54 1012.85 379.54 997.45 379.54"/><polygon class="cls-6" points="182.75 256.44 182.25 256.82 182.25 256.46 182.28 256.44 182.75 256.44"/></svg>